<svg id="Layer_1" data-name="Layer 1" xmlns="http://www.w3.org/2000/svg" viewBox="0 0 242 45"><defs><style>.cls-1{fill:#1e3d4b;}.cls-2{fill:#2b2b2b;}.cls-3{fill:#1f5448;}.cls-4{fill:#519b84;}.cls-5{fill:#276052;}.cls-6{fill:#357765;}</style></defs><polygon class="cls-1" points="14.58 25.53 0.39 25.53 0.39 0.6 6.84 0.6 6.84 20.12 14.58 20.12 14.58 25.53"/><polygon class="cls-1" points="45.61 25.53 31.49 25.53 31.49 0.6 45.61 0.6 45.61 6.01 37.94 6.01 37.94 10.26 45.19 10.26 45.19 15.67 37.94 15.67 37.94 20.12 45.61 20.12 45.61 25.53"/><path class="cls-1" d="M71,17.28q0,6.33-5.53,8.25a12.4,12.4,0,0,1-4.14.68,14.59,14.59,0,0,1-8.63-2.85l2.76-5.22a8.64,8.64,0,0,0,5.7,2.65,3.75,3.75,0,0,0,2.13-.59,2.1,2.1,0,0,0,1-1.88,2.14,2.14,0,0,0-1.12-1.84,10.87,10.87,0,0,0-2.84-1.13c-1.6-.48-2.61-.8-3-1a6.88,6.88,0,0,1-1.67-1,6.09,6.09,0,0,1-2-5A8.09,8.09,0,0,1,62.12,0,16.67,16.67,0,0,1,70,2l-2.58,5A7,7,0,0,0,63.16,5.4a3.33,3.33,0,0,0-1.86.54,1.83,1.83,0,0,0-.92,1.61,2,2,0,0,0,1.21,1.7,20.82,20.82,0,0,0,3.28,1.14,9.41,9.41,0,0,1,4.88,2.85,6.29,6.29,0,0,1,1.26,4"/><path class="cls-1" d="M94.29,17.28q0,6.33-5.53,8.25a12.45,12.45,0,0,1-4.15.68A14.57,14.57,0,0,1,76,23.36l2.77-5.22a8.6,8.6,0,0,0,5.7,2.65,3.7,3.7,0,0,0,2.12-.59,2.15,2.15,0,0,0-.11-3.72,10.67,10.67,0,0,0-2.83-1.13c-1.6-.48-2.61-.8-3-1a7.18,7.18,0,0,1-1.67-1,6.08,6.08,0,0,1-2-5A8.08,8.08,0,0,1,85.42,0a16.6,16.6,0,0,1,7.86,2l-2.57,5A7,7,0,0,0,86.44,5.4a3.33,3.33,0,0,0-1.86.54,1.83,1.83,0,0,0-.92,1.61,2,2,0,0,0,1.21,1.7,20.82,20.82,0,0,0,3.28,1.14A9.36,9.36,0,0,1,93,13.24a6.23,6.23,0,0,1,1.26,4"/><polygon class="cls-1" points="115.48 25.53 101.37 25.53 101.37 0.6 115.48 0.6 115.48 6.01 107.82 6.01 107.82 10.26 115.07 10.26 115.07 15.67 107.82 15.67 107.82 20.12 115.48 20.12 115.48 25.53"/><polygon class="cls-1" points="147.33 25.53 140.88 25.53 129.01 10.26 129.01 25.53 122.56 25.53 122.56 0.6 129.01 0.6 140.88 15.85 140.88 0.6 147.33 0.6 147.33 25.53"/><polygon class="cls-1" points="170.88 6.01 165.54 6.01 165.54 25.53 159.08 25.53 159.08 6.01 153.83 6.01 153.83 0.6 170.88 0.6 170.88 6.01"/><rect class="cls-1" x="178.15" y="0.6" width="6.45" height="24.92"/><path class="cls-1" d="M217.59,25.53h-6.88l-1.6-4.35h-8.9l-1.71,4.35h-6.82L201.23.6h7Zm-10.23-9.28-2.67-7.94L202,16.25Z"/><polygon class="cls-1" points="238.87 25.53 224.68 25.53 224.68 0.6 231.13 0.6 231.13 20.12 238.87 20.12 238.87 25.53"/><path class="cls-2" d="M.56,37.12A4.57,4.57,0,0,1,5.34,32.5,4.48,4.48,0,0,1,8.88,34L7.82,35a3.14,3.14,0,0,0-2.39-1.07,3.15,3.15,0,0,0-.21,6.3h.21a3.07,3.07,0,0,0,2.39-1.06l1.06,1a4.54,4.54,0,0,1-3.54,1.5A4.51,4.51,0,0,1,.56,37.12Z"/><path class="cls-2" d="M12,38.19a3.43,3.43,0,0,1,3.61-3.5,3.5,3.5,0,1,1,0,7A3.42,3.42,0,0,1,12,38.19Zm5.64,0a2,2,0,1,0-2,2.13,2,2,0,0,0,2-2.13Z"/><path class="cls-2" d="M22.6,40.91l.61-1.21a4.6,4.6,0,0,0,2.37.68c1,0,1.41-.29,1.41-.76,0-1.3-4.2-.08-4.2-2.81,0-1.29,1.16-2.13,3-2.13a5.37,5.37,0,0,1,2.55.59l-.61,1.22A3.7,3.7,0,0,0,25.77,36c-1,0-1.41.32-1.41.77,0,1.39,4.2.16,4.2,2.85,0,1.28-1.17,2.11-3.08,2.11A5.3,5.3,0,0,1,22.6,40.91Z"/><path class="cls-2" d="M43.87,37.69V41.6h-1.6V37.89c0-1.21-.56-1.8-1.53-1.8s-1.77.69-1.77,2v3.48H37.38V37.89c0-1.21-.56-1.8-1.53-1.8s-1.77.69-1.77,2v3.48H32.49V34.77H34v.87a2.82,2.82,0,0,1,2.23-1,2.55,2.55,0,0,1,2.29,1.14,3.18,3.18,0,0,1,2.53-1.14C42.72,34.69,43.87,35.63,43.87,37.69Z"/><path class="cls-2" d="M54.89,38.7H49.56a2.06,2.06,0,0,0,2.2,1.64,2.41,2.41,0,0,0,1.85-.74l.85,1a3.4,3.4,0,0,1-2.73,1.11A3.46,3.46,0,0,1,48,38.19a3.38,3.38,0,0,1,3.28-3.5h.23a3.33,3.33,0,0,1,3.44,3.54C54.91,38.35,54.9,38.55,54.89,38.7Zm-5.35-1.07H53.4a2,2,0,0,0-3.86,0Z"/><path class="cls-2" d="M58.43,38.19a3.45,3.45,0,0,1,3.68-3.5A3.06,3.06,0,0,1,65,36.28L63.8,37a1.91,1.91,0,0,0-1.7-.94,2.13,2.13,0,0,0,0,4.26,1.91,1.91,0,0,0,1.7-.94l1.22.71a3.1,3.1,0,0,1-2.91,1.6A3.44,3.44,0,0,1,58.43,38.19Z"/><path class="cls-2" d="M75.22,38.7H69.88a2.06,2.06,0,0,0,2.2,1.64,2.44,2.44,0,0,0,1.85-.74l.85,1A3.43,3.43,0,0,1,72,41.69a3.46,3.46,0,0,1-3.76-3.5,3.4,3.4,0,0,1,3.29-3.5h.23a3.33,3.33,0,0,1,3.44,3.54C75.24,38.35,75.23,38.55,75.22,38.7Zm-5.36-1.07h3.87A1.86,1.86,0,0,0,71.8,36a1.89,1.89,0,0,0-1.94,1.67Z"/><path class="cls-2" d="M85.91,34.77v6.85H84.39v-.89a2.75,2.75,0,0,1-2.19,1,2.7,2.7,0,0,1-2.93-3V34.76h1.59v3.7c0,1.24.59,1.83,1.6,1.83s1.85-.69,1.85-2.06V34.77Z"/><path class="cls-2" d="M94.64,41.24a2.55,2.55,0,0,1-1.54.45,2.09,2.09,0,0,1-2.34-2.3V36.1H89.64V34.82h1.12V33.26h1.59v1.56h1.82V36.1H92.34v3.25c0,.67.34,1,.94,1a1.39,1.39,0,0,0,.9-.29Z"/><path class="cls-2" d="M98.28,32.68a1,1,0,0,1,1-1h0a1,1,0,0,1,1,.88v0a1,1,0,1,1-2,0Zm.22,2.09h1.59v6.85H98.5Z"/><path class="cls-2" d="M104.17,38.19a3.45,3.45,0,0,1,3.68-3.5,3.06,3.06,0,0,1,2.91,1.59l-1.22.71a1.92,1.92,0,0,0-1.7-.94,2.13,2.13,0,0,0,0,4.26,1.92,1.92,0,0,0,1.7-.94l1.22.71a3.1,3.1,0,0,1-2.91,1.6A3.44,3.44,0,0,1,104.17,38.19Z"/><path class="cls-2" d="M120.38,37.6v4h-1.5v-.83a2.4,2.4,0,0,1-2.13.92c-1.55,0-2.54-.85-2.54-2.05s.77-2,2.84-2h1.77v-.1c0-.94-.56-1.49-1.7-1.49a3.33,3.33,0,0,0-2.06.68l-.63-1.17a4.79,4.79,0,0,1,2.88-.84C119.25,34.69,120.38,35.63,120.38,37.6Zm-1.59,1.87v-.8h-1.65c-1.08,0-1.37.41-1.37.91s.48,1,1.3,1A1.73,1.73,0,0,0,118.79,39.47Z"/><path class="cls-2" d="M125,32.1h1.6v9.52H125Z"/><path class="cls-2" d="M137.42,32.64h1.66v9h-1.66Z"/><path class="cls-2" d="M150.58,37.69V41.6H149V37.89c0-1.21-.6-1.8-1.62-1.8a1.81,1.81,0,0,0-1.89,2.06v3.47h-1.6V34.77h1.52v.88a2.94,2.94,0,0,1,2.34-1A2.66,2.66,0,0,1,150.58,37.69Z"/><path class="cls-2" d="M161.86,37.69V41.6h-1.59V37.89c0-1.21-.6-1.8-1.62-1.8a1.81,1.81,0,0,0-1.9,2.06v3.47h-1.59V34.77h1.52v.88a2.94,2.94,0,0,1,2.34-1A2.67,2.67,0,0,1,161.86,37.69Z"/><path class="cls-2" d="M165.94,38.19a3.63,3.63,0,1,1,3.63,3.5A3.44,3.44,0,0,1,165.94,38.19Zm5.65,0a2,2,0,1,0-2,2.13A2,2,0,0,0,171.59,38.19Z"/><path class="cls-2" d="M183.45,34.77l-2.91,6.85H178.9L176,34.79h1.66l2.12,5.07,2.18-5.07Z"/><path class="cls-2" d="M192.47,37.6v4H191v-.83a2.38,2.38,0,0,1-2.12.92c-1.56,0-2.54-.85-2.54-2.05s.76-2,2.83-2h1.77v-.1c0-.94-.56-1.49-1.7-1.49a3.35,3.35,0,0,0-2.06.68l-.62-1.17a4.73,4.73,0,0,1,2.86-.86C191.34,34.69,192.47,35.63,192.47,37.6Zm-1.59,1.87v-.8h-1.64c-1.08,0-1.38.41-1.38.91s.49,1,1.3,1A1.73,1.73,0,0,0,190.88,39.47Z"/><path class="cls-2" d="M201.15,41.24a2.49,2.49,0,0,1-1.52.45,2.09,2.09,0,0,1-2.35-2.3V36.1h-1.12V34.82h1.12V33.26h1.59v1.56h1.82V36.1h-1.82v3.25c0,.67.33,1,.95,1a1.38,1.38,0,0,0,.89-.29Z"/><path class="cls-2" d="M204.8,32.68a1,1,0,0,1,1-1h0a.94.94,0,0,1,1,.88v0a1,1,0,0,1-1,1A1,1,0,0,1,204.8,32.68Zm.22,2.09h1.59v6.85H205Z"/><path class="cls-2" d="M210.69,38.19a3.63,3.63,0,1,1,3.62,3.5A3.43,3.43,0,0,1,210.69,38.19Zm5.64,0a2,2,0,1,0-2,2.13A2,2,0,0,0,216.33,38.19Z"/><path class="cls-2" d="M228.72,37.69V41.6h-1.6V37.89c0-1.21-.59-1.8-1.61-1.8a1.81,1.81,0,0,0-1.9,2.06v3.47H222V34.77h1.51v.88a2.94,2.94,0,0,1,2.35-1A2.67,2.67,0,0,1,228.72,37.69Z"/><path class="cls-2" d="M232.52,40.91l.61-1.21a4.6,4.6,0,0,0,2.37.68c1,0,1.42-.29,1.42-.76,0-1.3-4.21-.08-4.21-2.81,0-1.29,1.16-2.13,3-2.13a5.45,5.45,0,0,1,2.54.59l-.61,1.22a3.7,3.7,0,0,0-1.95-.52c-1,0-1.41.32-1.41.77,0,1.39,4.2.16,4.2,2.85,0,1.28-1.17,2.11-3.08,2.11A5.3,5.3,0,0,1,232.52,40.91Z"/><polygon class="cls-3" points="20.14 0.64 17.57 7.24 15.87 11.59 19.69 11.59 23.12 5.38 25.74 0.64 20.14 0.64"/><polyline class="cls-4" points="17.57 7.24 19.69 11.59 15.87 11.59 17.57 7.24"/><polygon class="cls-5" points="20.14 0.64 23.12 5.38 17.57 7.24 20.14 0.64"/><polygon class="cls-6" points="17.57 7.24 19.69 11.59 23.12 5.38 17.57 7.24"/></svg>